<svg width="23" height="24" viewBox="0 0 23 24" fill="none" xmlns="http://www.w3.org/2000/svg">
<path d="M11.5 0C17.8538 0 23 5.37 23 12C22.9994 14.5143 22.2432 16.9651 20.8378 19.0074C19.4324 21.0498 17.4486 22.5808 15.1656 23.385C14.5906 23.505 14.375 23.13 14.375 22.815C14.375 22.41 14.3894 21.12 14.3894 19.515C14.3894 18.39 14.03 17.67 13.6131 17.295C16.1719 16.995 18.86 15.975 18.86 11.37C18.86 10.05 18.4144 8.985 17.6813 8.145C17.7963 7.845 18.1988 6.615 17.5663 4.965C17.5663 4.965 16.6031 4.635 14.4038 6.195C13.4838 5.925 12.5063 5.79 11.5288 5.79C10.5513 5.79 9.57375 5.925 8.65375 6.195C6.45438 4.65 5.49125 4.965 5.49125 4.965C4.85875 6.615 5.26125 7.845 5.37625 8.145C4.64313 8.985 4.1975 10.065 4.1975 11.37C4.1975 15.96 6.87125 16.995 9.43 17.295C9.09938 17.595 8.7975 18.12 8.69688 18.9C8.03563 19.215 6.3825 19.725 5.3475 17.91C5.13188 17.55 4.485 16.665 3.57938 16.68C2.61625 16.695 3.19125 17.25 3.59375 17.475C4.0825 17.76 4.64313 18.825 4.7725 19.17C5.0025 19.845 5.75 21.135 8.63938 20.58C8.63938 21.585 8.65375 22.53 8.65375 22.815C8.65375 23.13 8.43813 23.49 7.86313 23.385C5.57267 22.5895 3.58043 21.0615 2.16903 19.018C0.75763 16.9744 -0.00126569 14.519 1.58457e-06 12C1.58457e-06 5.37 5.14625 0 11.5 0Z" fill="white"/>
</svg>
