<svg width="24" height="24" viewBox="0 0 24 24" fill="none" xmlns="http://www.w3.org/2000/svg">
<path fill-rule="evenodd" clip-rule="evenodd" d="M7.04359 0.147275C5.09013 0.235414 3.39698 0.713009 2.02979 2.07442C0.657834 3.44298 0.18617 5.14283 0.0978101 7.07596C0.0428837 8.28253 -0.278297 17.3979 0.653059 19.7884C1.28113 21.4011 2.51813 22.6411 4.14561 23.2712C4.90503 23.5666 5.77193 23.7666 7.04359 23.8249C17.6766 24.3061 21.6181 24.0442 23.2802 19.7884C23.5751 19.0309 23.7781 18.1647 23.8343 16.8962C24.3202 6.23603 23.7555 3.92536 21.9023 2.07442C20.4324 0.608189 18.7034 -0.389904 7.04359 0.147275ZM7.14148 21.681C5.97728 21.6286 5.34564 21.4346 4.92414 21.2714C3.86383 20.8593 3.0674 20.0662 2.65784 19.0121C1.94858 17.1956 2.18382 8.5686 2.2471 7.17264C2.30919 5.80527 2.58621 4.55559 3.551 3.59082C4.74504 2.39973 6.28773 1.81598 16.7918 2.29004C18.1625 2.35197 19.4151 2.62842 20.3823 3.59082C21.5763 4.7819 22.1686 6.33646 21.6862 16.8001C21.6336 17.9615 21.439 18.5916 21.2754 19.0121C20.1948 21.7813 17.7088 22.1657 7.14148 21.681ZM16.9076 5.62753C16.9076 6.41603 17.5488 7.05721 18.3405 7.05721C19.1321 7.05721 19.7745 6.41603 19.7745 5.62753C19.7745 4.83904 19.1321 4.19843 18.3405 4.19843C17.5488 4.19843 16.9076 4.83904 16.9076 5.62753ZM5.8352 11.9855C5.8352 15.3634 8.58032 18.1021 11.9666 18.1021C15.353 18.1021 18.0981 15.3634 18.0981 11.9855C18.0981 8.6076 15.353 5.87069 11.9666 5.87069C8.58032 5.87069 5.8352 8.6076 5.8352 11.9855ZM7.98687 11.9855C7.98687 9.79393 9.7684 8.0158 11.9666 8.0158C14.1649 8.0158 15.9464 9.79393 15.9464 11.9855C15.9464 14.1783 14.1649 15.957 11.9666 15.957C9.7684 15.957 7.98687 14.1783 7.98687 11.9855Z" fill="white"/>
</svg>
